<svg width="150" height="150" viewBox="0 0 150 150" fill="none" xmlns="http://www.w3.org/2000/svg">
<g clip-path="url(#clip0_24_105)">
<path d="M132.537 53.3408C113.22 43.5367 82.1514 37.0264 54.7953 37.0264C14.7857 37.0264 0 52.0411 0 70.5619C0 89.0835 14.7853 104.097 54.7953 104.097C83.7416 104.097 117.076 96.2485 134.755 86.3534C143.753 81.3174 150 75.6068 150 70.3904C150 65.3645 143.183 58.7438 132.537 53.3408Z" fill="black"/>
<path d="M121.065 45.1008C129.53 47.855 129.964 48.1765 135.385 51.0294C136.717 51.7308 137.938 52.7009 138.727 52.5566C139.553 52.4054 139.837 50.4334 139.837 50.4334L143.677 34.1423C144.238 32.3784 143.17 30.9134 141.304 30.8866L135.875 30.81C134.009 30.7832 131.58 31.9682 130.48 33.4429L121.481 43.249C121.483 43.2482 119.683 44.651 121.065 45.1008Z" fill="black"/>
<path d="M140.332 90.9299C140.332 90.9299 140.048 88.9579 139.223 88.8067C138.434 88.6621 137.212 89.6325 135.88 90.3335C130.459 93.1864 130.025 93.508 121.56 96.2622C120.178 96.712 121.978 98.1147 121.978 98.1147L130.975 107.921C132.076 109.395 134.504 110.581 136.371 110.554L141.8 110.477C143.666 110.451 144.734 108.985 144.173 107.221L140.332 90.9299Z" fill="black"/>
<path d="M105.693 101.971C88.2041 106.324 72.9301 108.791 54.9968 108.791C47.9484 108.791 43.8031 108.205 37.5852 107.202C35.6727 106.894 35.6727 108.261 35.6727 108.261L39.1155 116.446C40.5995 118.755 42.4315 119.19 46.4846 119.19H94.3781C98.4297 119.19 100.766 118.26 101.745 116.446C101.745 116.446 104.595 110.233 107.26 104.976C108.045 103.427 107.451 101.58 105.693 101.971ZM53.8121 117.633C52.1034 117.633 50.7181 116.248 50.7181 114.539C50.7181 112.83 52.1034 111.445 53.8121 111.445C55.5213 111.445 56.9061 112.83 56.9061 114.539C56.9061 116.248 55.5209 117.633 53.8121 117.633ZM65.3009 117.633C63.5922 117.633 62.2073 116.248 62.2073 114.539C62.2073 112.83 63.5925 111.445 65.3009 111.445C67.01 111.445 68.3949 112.83 68.3949 114.539C68.3949 116.248 67.0096 117.633 65.3009 117.633ZM76.79 117.633C75.0809 117.633 73.696 116.248 73.696 114.539C73.696 112.83 75.0813 111.445 76.79 111.445C78.4992 111.445 79.8844 112.83 79.8844 114.539C79.8844 116.248 78.4984 117.633 76.79 117.633ZM88.2784 117.633C86.5697 117.633 85.1848 116.248 85.1848 114.539C85.1848 112.83 86.5697 111.445 88.2784 111.445C89.9875 111.445 91.3728 112.83 91.3728 114.539C91.3728 116.248 89.9875 117.633 88.2784 117.633Z" fill="black"/>
<path d="M132.537 53.3408C113.22 43.5367 82.1514 37.0264 54.7953 37.0264C14.7857 37.0264 0 52.0411 0 70.5619C0 89.0835 14.7853 104.097 54.7953 104.097C83.7416 104.097 117.076 96.2485 134.755 86.3534C143.753 81.3174 150 75.6068 150 70.3904C150 65.3645 143.183 58.7438 132.537 53.3408Z" fill="black"/>
<path d="M121.065 45.1008C129.53 47.855 129.964 48.1765 135.385 51.0294C136.717 51.7308 137.938 52.7009 138.727 52.5566C139.553 52.4054 139.837 50.4334 139.837 50.4334L143.677 34.1423C144.238 32.3784 143.17 30.9134 141.304 30.8866L135.875 30.81C134.009 30.7832 131.58 31.9682 130.48 33.4429L121.481 43.249C121.483 43.2482 119.683 44.651 121.065 45.1008Z" fill="black"/>
<path d="M140.332 90.9299C140.332 90.9299 140.048 88.9579 139.223 88.8067C138.434 88.6621 137.212 89.6325 135.88 90.3335C130.459 93.1864 130.025 93.508 121.56 96.2622C120.178 96.712 121.978 98.1147 121.978 98.1147L130.975 107.921C132.076 109.395 134.504 110.581 136.371 110.554L141.8 110.477C143.666 110.451 144.734 108.985 144.173 107.221L140.332 90.9299Z" fill="black"/>
<path d="M105.693 101.971C88.2041 106.324 72.9301 108.791 54.9968 108.791C47.9484 108.791 43.8031 108.205 37.5852 107.202C35.6727 106.894 35.6727 108.261 35.6727 108.261L39.1155 116.446C40.5995 118.755 42.4315 119.19 46.4846 119.19H94.3781C98.4297 119.19 100.766 118.26 101.745 116.446C101.745 116.446 104.595 110.233 107.26 104.976C108.045 103.427 107.451 101.58 105.693 101.971ZM53.8121 117.633C52.1034 117.633 50.7181 116.248 50.7181 114.539C50.7181 112.83 52.1034 111.445 53.8121 111.445C55.5213 111.445 56.9061 112.83 56.9061 114.539C56.9061 116.248 55.5209 117.633 53.8121 117.633ZM65.3009 117.633C63.5922 117.633 62.2073 116.248 62.2073 114.539C62.2073 112.83 63.5925 111.445 65.3009 111.445C67.01 111.445 68.3949 112.83 68.3949 114.539C68.3949 116.248 67.0096 117.633 65.3009 117.633ZM76.79 117.633C75.0809 117.633 73.696 116.248 73.696 114.539C73.696 112.83 75.0813 111.445 76.79 111.445C78.4992 111.445 79.8844 112.83 79.8844 114.539C79.8844 116.248 78.4984 117.633 76.79 117.633ZM88.2784 117.633C86.5697 117.633 85.1848 116.248 85.1848 114.539C85.1848 112.83 86.5697 111.445 88.2784 111.445C89.9875 111.445 91.3728 112.83 91.3728 114.539C91.3728 116.248 89.9875 117.633 88.2784 117.633Z" fill="black"/>
</g>
<defs>
<clipPath id="clip0_24_105">
<rect width="150" height="150" fill="white"/>
</clipPath>
</defs>
</svg>
