<svg width="756" height="791" viewBox="0 0 756 791" fill="none" xmlns="http://www.w3.org/2000/svg">
<g id="kitty" clip-path="url(#clip0_27_168)">
<g id="layer1">
<path id="path8505" fill-rule="evenodd" clip-rule="evenodd" d="M555.572 180.626C572.487 127.456 579.062 70.1492 555.572 0.81665C474.63 52.6262 460.963 104.436 424.524 156.245L555.572 180.626Z" fill="black" stroke="black" stroke-width="1.06667"/>
<path id="path8556" fill-rule="evenodd" clip-rule="evenodd" d="M547.068 158.463C559.818 118.385 564.774 75.1895 547.068 22.9292C486.057 61.9813 475.755 101.033 448.289 140.085L547.068 158.463Z" fill="#FFAAAA" stroke="black" stroke-width="0.804013"/>
<path id="path8503" fill-rule="evenodd" clip-rule="evenodd" d="M128.533 180.626C111.617 127.456 105.043 70.1492 128.533 0.81665C209.474 52.6262 223.142 104.436 259.581 156.245L128.533 180.626Z" fill="black" stroke="black" stroke-width="1.06667"/>
<path id="path8552" fill-rule="evenodd" clip-rule="evenodd" d="M138.571 158.463C125.82 118.385 120.864 75.1895 138.571 22.9292C199.581 61.9813 209.883 101.033 237.349 140.085L138.571 158.463Z" fill="#FFAAAA" stroke="black" stroke-width="0.804013"/>
<path id="path8501" d="M340.783 482.34C528.697 482.34 681.032 388.192 681.032 272.055C681.032 155.917 528.697 61.769 340.783 61.769C152.868 61.769 0.533203 155.917 0.533203 272.055C0.533203 388.192 152.868 482.34 340.783 482.34Z" fill="black" stroke="black" stroke-width="1.06667"/>
<path id="path8507" d="M162.057 284.245C222.651 284.245 271.771 265.143 271.771 241.579C271.771 218.014 222.651 198.912 162.057 198.912C101.464 198.912 52.3428 218.014 52.3428 241.579C52.3428 265.143 101.464 284.245 162.057 284.245Z" fill="white" stroke="black" stroke-width="1.06667"/>
<path id="leye" d="M162.391 272.259C170.892 272.259 177.783 258.546 177.783 241.63C177.783 224.713 170.892 211 162.391 211C153.891 211 147 224.713 147 241.63C147 258.546 153.891 272.259 162.391 272.259Z" fill="#1A1A1A" stroke="black" stroke-width="0.759938"/>
<path id="ellipse8511" d="M485.105 284.245C545.698 284.245 594.819 265.143 594.819 241.579C594.819 218.014 545.698 198.912 485.105 198.912C424.511 198.912 375.391 218.014 375.391 241.579C375.391 265.143 424.511 284.245 485.105 284.245Z" fill="white" stroke="black" stroke-width="1.06667"/>
<path id="reye" d="M493.391 272.259C501.892 272.259 508.783 258.546 508.783 241.63C508.783 224.713 501.892 211 493.391 211C484.891 211 478 224.713 478 241.63C478 258.546 484.891 272.259 493.391 272.259Z" fill="#1A1A1A" stroke="black" stroke-width="0.759938"/>
<path id="path8515" d="M326.628 336.055C345.143 336.055 360.152 328.55 360.152 319.293C360.152 310.036 345.143 302.531 326.628 302.531C308.114 302.531 293.104 310.036 293.104 319.293C293.104 328.55 308.114 336.055 326.628 336.055Z" fill="white" stroke="black" stroke-width="1.06667"/>
<g id="g8534">
<path id="path8517" d="M329.653 378.636C329.653 383.351 328.164 387.983 325.335 392.067C322.506 396.15 318.437 399.541 313.537 401.898C308.637 404.256 303.079 405.497 297.421 405.497C291.763 405.497 286.205 404.256 281.305 401.898C276.405 399.541 272.336 396.15 269.507 392.067C266.678 387.983 265.189 383.351 265.189 378.636" stroke="white" stroke-width="6.26741" stroke-linecap="round" stroke-linejoin="round"/>
<path id="path8519" d="M394.199 378.636C394.199 383.351 392.71 387.983 389.881 392.067C387.052 396.15 382.983 399.541 378.083 401.898C373.183 404.256 367.625 405.497 361.967 405.497C356.309 405.497 350.75 404.256 345.851 401.898C340.951 399.541 336.882 396.15 334.053 392.067C331.224 387.983 329.734 383.351 329.734 378.636" stroke="white" stroke-width="6.26741" stroke-linecap="round" stroke-linejoin="round"/>
<path id="path8521" d="M329.029 381.832V330.397" stroke="white" stroke-width="6.26741"/>
</g>
<path id="path8539" d="M113.843 340.696H196.232" stroke="white" stroke-width="5.33333" stroke-linecap="round"/>
<path id="path8541" d="M118.993 385.323L199.665 369.875" stroke="white" stroke-width="5.33333" stroke-linecap="round"/>
<path id="path8543" d="M554.966 340.696H472.577" stroke="white" stroke-width="5.33333" stroke-linecap="round"/>
<path id="path8545" d="M549.817 385.323L469.145 369.875" stroke="white" stroke-width="5.33333" stroke-linecap="round"/>
<path id="rect8547" d="M233.994 455.697H443.398L500.041 788.685H233.994V455.697Z" fill="black"/>
<path id="path8550" d="M434.816 742.341C434.816 742.341 502.302 771.827 534.37 761.222C572.043 748.763 604.491 711.936 615.042 673.684C621.725 649.454 637.888 622.533 661.386 613.609C709.043 595.51 728.326 625.624 728.326 625.624" stroke="black" stroke-width="53.3333" stroke-linecap="round"/>
</g>
</g>
<defs>
<clipPath id="clip0_27_168">
<rect width="755.199" height="790.828" fill="white"/>
</clipPath>
</defs>
</svg>
